<svg id="Layer_1" data-name="Layer 1" xmlns="http://www.w3.org/2000/svg" viewBox="0 0 1080 1080"><defs><style>.cls-1,.cls-16,.cls-2,.cls-3,.cls-4{fill:none;stroke-miterlimit:10;}.cls-1{stroke:#254b6f;}.cls-1,.cls-2,.cls-3,.cls-4{stroke-width:4px;}.cls-2{stroke:#2d886f;}.cls-3{stroke:#72332c;}.cls-4{stroke:#cc9629;}.cls-5{fill:#b89251;}.cls-6{fill:#72332c;}.cls-7{fill:#2d886f;}.cls-8{fill:#254b6f;}.cls-9{fill:#2b8e72;}.cls-10{fill:#07705c;}.cls-11{fill:#23425e;}.cls-12{fill:#0a1854;opacity:0.99;}.cls-13{fill:#937144;}.cls-14{fill:#632d2b;}.cls-15{fill:#9d4f3b;}.cls-16{stroke:#07705c;}.cls-17{fill:#9c4f3d;}.cls-18{fill:#7a1f1d;}.cls-19{fill:#d48f10;}.cls-20{fill:#084374;}.cls-21{fill:green;}.cls-22{fill:#333;}</style></defs><title>LEAP PAKISTAN LOGO</title><path class="cls-1" d="M371.23,504A167.78,167.78,0,0,0,487.55,619.53"/><path class="cls-2" d="M693.5,504A167.79,167.79,0,0,1,577.19,619.53"/><path class="cls-3" d="M693.5,415.49A167.79,167.79,0,0,0,577.19,300"/><path class="cls-4" d="M371.23,415.49A167.78,167.78,0,0,1,487.55,300"/><path class="cls-5" d="M357.09,405.25l-39.74,13.52A214.6,214.6,0,0,1,375,305.35c44.74-45.75,96.61-57.46,114.79-60.71q-5.79,19-11.59,38.09A179.78,179.78,0,0,0,357.09,405.25Z"/><path class="cls-6" d="M707.75,405.25l39.74,13.52a214.6,214.6,0,0,0-57.68-113.42C645.07,259.6,593.2,247.89,575,244.64q5.79,19,11.59,38.09A179.78,179.78,0,0,1,707.75,405.25Z"/><path class="cls-7" d="M707.75,513.7l39.74-13.52A214.6,214.6,0,0,1,689.81,613.6C645.07,659.35,593.2,671.06,575,674.31q5.79-19,11.59-38.09A179.78,179.78,0,0,0,707.75,513.7Z"/><path class="cls-8" d="M357.09,513.7l-39.74-13.52A214.6,214.6,0,0,0,375,613.6c44.74,45.75,96.61,57.46,114.79,60.71q-5.79-19-11.59-38.09A179.78,179.78,0,0,1,357.09,513.7Z"/><polygon class="cls-9" points="592.29 340.56 819.13 171.26 605.96 385.27 592.29 340.56"/><polygon class="cls-10" points="656.87 402.65 819.13 171.26 605.96 385.27 656.87 402.65"/><polygon class="cls-11" points="472.77 339.88 245.94 170.58 459.12 384.58 472.77 339.88"/><polygon class="cls-12" points="408.2 401.96 245.94 170.58 459.12 384.58 408.2 401.96"/><polygon class="cls-13" points="472.19 579.61 245.36 748.91 458.53 534.91 472.19 579.61"/><polygon class="cls-5" points="407.62 517.52 245.36 748.91 458.53 534.91 407.62 517.52"/><polygon class="cls-14" points="591.71 580.3 818.55 749.6 605.37 535.6 591.71 580.3"/><polygon class="cls-15" points="656.29 518.21 818.55 749.6 605.37 535.6 656.29 518.21"/><line class="cls-16" x1="613.9" y1="441.51" x2="615.94" y2="441.68"/><path class="cls-17" d="M464.71,461.53l-229.59-2.76,222.42-75.06,75.61-227.38V341.77L503.9,423.45,420,426.21Z"/><path class="cls-5" d="M601.59,460.15l229.59-2.73L608.76,383,533.15,157.71V341.47l29.25,80.95,83.89,2.73Z"/><path class="cls-11" d="M600.08,460.15l229.59-2.73-222,78.5c-.41,1.17-2.17,6.42-7.46,22.43l0,.07c-4,12.25-23.51,70.8-68.12,204.89q.08-126.6.16-253.2l26.08,21.11,41.88,27.2-20.67-82.26Z"/><path class="cls-9" d="M483.35,474.51l-20.14-13-229.6-2.76,222.8,77.83L532,761.93q.08-125.91.16-251.82l-69.52,45.12Q473,514.87,483.35,474.51Z"/><path class="cls-18" d="M147.93,834.69l3.59-4L149,844.91h-4.48l.64-14.22h43.6l.64,14.22H184.9l-2.56-14.22,3.6,4Zm19.8,45.11,11.18,1.2v3.19H155V881l11.18-1.2Zm-4.39-24.35c0-8.23,0-16.53-.24-24.76h7.66c-.23,8.07-.23,16.37-.23,24.76v4c0,8.23,0,16.53.23,24.75H163.1c.24-8.06.24-16.37.24-24.75Z"/><path class="cls-18" d="M194.56,833.89v-3.2h22.36v3.2l-10.38,1.2h-1.6Zm12,45.91,10.38,1.2v3.19H194.56V881l10.38-1.2Zm-4.4-24.35c0-8.23,0-16.53-.24-24.76h7.67c-.24,8.07-.24,16.37-.24,24.76v2.39c0,9.83,0,18.13.24,26.35H201.9c.24-8.06.24-16.37.24-24.75Zm3.6,3.19V855h33.53v3.67Zm22.36-24.75v-3.2h22.35v3.2l-10.38,1.2h-1.59Zm12,45.91,10.38,1.2v3.19H228.1V881l10.38-1.2Zm-4.39-24.35c0-8.23,0-16.53-.24-24.76h7.67c-.24,8.07-.24,16.37-.24,24.76v4c0,8.23,0,16.53.24,24.75h-7.67c.24-8.06.24-16.37.24-26.35Z"/><path class="cls-18" d="M257.64,833.89v-3.2h11.18v4.4H268Zm11.18,45.91v4.39H257.64V881L268,879.8Zm-3.6-24.35c0-8.23,0-16.53-.24-24.76h7.67c-.24,8.07-.24,16.37-.24,24.76v3c0,9.19,0,17.49.24,25.71H265c.24-8.06.24-16.37.24-24.75Zm25.72-24.76,3.59,4H268.82v-4h28.5l.56,14.22h-4.47Zm-4.08,28h-18v-3.67h18ZM299.48,870l-.56,14.21h-30.1v-4h27.31l-3.6,4L295,870Zm-15.17-14.13,1.2-8.47h3.59v18.93h-3.59l-1.2-8.87Z"/><path class="cls-19" d="M343.23,833.89v-3.2h22.36v3.2l-10.38,1.2h-1.6Zm11.18,45.91v4.39H343.23V881l10.38-1.2Zm-3.83-49.11h7.67c-.24,8.23-.24,16.53-.24,24.76V861c0,6.78,0,15.09.24,23.15h-7.67c.24-8.22.24-16.52.24-24.75v-4C350.82,847.06,350.82,838.76,350.58,830.69Zm33.14,38.49-.8,15H354.41v-4h25.71l-4.39,4,3.2-15Z"/><path class="cls-20" d="M389.31,833.89v-3.2h11.18v4.4h-.8Zm11.18,45.91v4.39H389.31V881l10.38-1.2Zm-3.6-24.35c0-8.23,0-16.53-.24-24.76h7.67c-.24,8.07-.24,16.37-.24,24.76v3c0,9.19,0,17.49.24,25.71h-7.67c.24-8.06.24-16.37.24-24.75Zm25.71-24.76,3.6,4H400.49v-4H429l.56,14.22h-4.47Zm-4.07,28h-18v-3.67h18ZM431.15,870l-.56,14.21h-30.1v-4h27.3l-3.59,4L426.68,870ZM416,855.85l1.19-8.47h3.6v18.93h-3.6L416,857.44Z"/><path class="cls-21" d="M434.34,881l8-1.2h1.59l8.79,1.2v3.19H434.34Zm23.8-50.71h4.79l18.36,53.9h-7.42l-16.05-47.83h1.83l-16.29,47.83h-3.75ZM448.79,863h21.56l1.28,3.68H447.52Zm15.73,18,10.06-1.2h1.6l9.9,1.2v3.19H464.52Z"/><path class="cls-18" d="M489.67,833.89v-3.2h11.18v4.4h-.79Zm12,45.91L512,881v3.19H489.67V881l10.39-1.2Zm-4.39-24.35c0-8.23,0-16.53-.24-24.76h7.67c-.24,8.07-.24,16.37-.24,24.76v4.87c0,8.14,0,15.65.24,23.87H497c.24-8.06.24-16.37.24-24.75Zm11.5,7.58h-7.91v-3.67H510c9.82,0,13.65-5.19,13.65-12.78,0-7.74-4.31-12.21-14-12.21h-8.79v-3.68h10.3c13.26,0,20.05,6.55,20.05,15.89C531.2,855.53,525.05,863,508.76,863Z"/><path class="cls-21" d="M555.31,833.89v-3.2h11.18v4.4h-.8Zm12,45.91,10.38,1.2v3.19H555.31V881l10.38-1.2Zm-4.39-24.35c0-8.23,0-16.53-.24-24.76h7.66c-.24,8.07-.24,16.37-.24,24.76v4.87c0,8.14,0,15.65.24,23.87h-7.66c.24-8.06.24-16.37.24-24.75ZM574.39,863h-7.9v-3.67h9.1c9.82,0,13.66-5.19,13.66-12.78,0-7.74-4.31-12.21-14-12.21h-8.78v-3.68h10.3c13.25,0,20,6.55,20,15.89C596.83,855.53,590.68,863,574.39,863Z"/><path class="cls-21" d="M594.28,881l8-1.2h1.6l8.78,1.2v3.19H594.28Zm23.79-50.71h4.79l18.37,53.9H633.8l-16-47.83h1.84L603.3,884.19h-3.75ZM608.73,863h21.56l1.28,3.68H607.45Zm15.73,18,10.06-1.2h1.6L646,881v3.19H624.46Z"/><path class="cls-21" d="M649.61,833.89v-3.2H672v3.2l-10.38,1.2H660Zm12,45.91L672,881v3.19H649.61V881L660,879.8Zm-4.39-24.35c0-8.23,0-16.53-.24-24.76h7.42c-.24,8.07-.24,16.37-.24,24.76v6.07c0,6.15,0,14.45.24,22.67H657c.24-8.06.24-16.37.24-24.75Zm3.43,9.42,28-34.18h4.79l-32.74,39.37Zm14.77-15.41,19.33,34.73h-7.51l-16-29.78Zm3,31.54,9.58-1.2h1.2l9.58,1.2v3.19H678.36Zm.88-47.11v-3.2H697.6v3.2l-8.78,1.2-1.6.4Z"/><path class="cls-21" d="M702.71,833.89v-3.2h22.36v3.2l-10.38,1.2h-1.6Zm12,45.91,10.38,1.2v3.19H702.71V881l10.38-1.2Zm-4.39-24.35c0-8.23,0-16.53-.24-24.76h7.66c-.24,8.07-.24,16.37-.24,24.76v4c0,8.23,0,16.53.24,24.75h-7.66c.24-8.06.24-16.37.24-24.75Z"/><path class="cls-21" d="M759.72,871.66c0-5.19-3.11-7.51-10.06-10.22l-3-1.2c-8.15-3.2-13.74-7.83-13.74-16,0-9.18,7.75-14.77,17.89-14.77a21.11,21.11,0,0,1,13,4.23l-.47,10.38h-4.8l-2.23-12.06,5.11,2.64v4c-3.91-3.83-6.87-5.19-11.1-5.19-6.23,0-10.94,3.11-10.94,9.1,0,5,3.27,8,9.1,10.22l3.12,1.2c10.54,4.07,14.61,8.7,14.61,16.21,0,9.42-7.9,15.17-18.84,15.17a30.63,30.63,0,0,1-15.49-4.23l.47-11.18h4.8l2.07,12.3L734,880v-3.83c5,3.59,7.67,5.19,13.1,5.19C754.69,881.4,759.72,877.89,759.72,871.66Z"/><path class="cls-21" d="M773.62,834.69l3.59-4-2.56,14.22h-4.47l.64-14.22h43.6l.64,14.22h-4.47L808,830.69l3.59,4Zm19.8,45.11L804.6,881v3.19h-24V881l11.18-1.2ZM789,855.45c0-8.23,0-16.53-.24-24.76h7.66c-.24,8.07-.24,16.37-.24,24.76v4c0,8.23,0,16.53.24,24.75h-7.66c.24-8.06.24-16.37.24-24.75Z"/><path class="cls-21" d="M811.46,881l8-1.2h1.6l8.78,1.2v3.19H811.46Zm23.8-50.71h4.79l18.37,53.9H851l-16-47.83h1.84l-16.29,47.83h-3.76ZM825.92,863h21.56l1.27,3.68H824.64Zm15.73,18,10.06-1.2h1.59l9.91,1.2v3.19H841.65Z"/><path class="cls-21" d="M866.4,881l8.38-1.2h1.6l9.18,1.2v3.19H866.4Zm5-47.83,5,1.92-9.58-1.2v-3.2h12l33.13,45.6v8.46h-2.55Zm1.76-2.48,4,3.2v50.3h-4Zm26.35,0H918.7v3.2l-8,1.2h-1.6l-9.58-1.2Zm8.38,0h4v54.06l-4-4Z"/><path class="cls-9" d="M455.56,435.44l77.83,23.36-49.15,70.61q7.39-29.52,14.8-59Z"/><polygon class="cls-22" points="482.19 530.09 531.45 496.98 582.77 530.09 531.45 459.72 482.19 530.09"/><polygon class="cls-5" points="613.55 437.1 532.21 460.22 533.58 372.75 552.67 432.98 613.55 437.1"/><path class="cls-11" d="M611.35,437.24l-79.9,22.48,51.32,70.37-17-58.78Q588.59,454.29,611.35,437.24Z"/><polygon class="cls-17" points="452.74 434.56 533.32 460.22 534.7 372.75 513.73 432.35 452.74 434.56"/><polygon class="cls-14" points="513.73 432.35 452.74 434.56 533.32 460.22 513.73 432.35"/><polygon class="cls-12" points="582.77 530.09 532.21 460.22 565.8 471.31 582.77 530.09"/><polygon class="cls-13" points="533.58 372.75 533.39 458.8 552.67 432.98 533.58 372.75"/><polygon class="cls-10" points="499.04 470.39 484.24 529.41 532.21 460.22 499.04 470.39"/><polygon class="cls-14" points="235.12 458.77 463.2 461.53 420.01 426.21 503.9 423.45 457.54 383.71 235.12 458.77"/><path class="cls-10" d="M456.41,536.6,532,763.31l.16-253.2-69,44.33,5.19-21.56Z"/><polygon class="cls-12" points="600.18 558.35 532.19 510.11 532.03 763.31 607.64 535.92 595.9 541.5 600.18 558.35"/><polygon class="cls-13" points="533.15 157.71 608.76 383.04 562.4 422.42 533.15 341.47 533.15 157.71"/></svg>